<svg xmlns="http://www.w3.org/2000/svg" viewBox="0 0 64 64">
  <!-- Bright teal/turquoise background circle -->
  <circle cx="32" cy="32" r="32" fill="#00BCD4"/>
  
  <!-- Sailboat white sail -->
  <path d="M32 12 L32 38 L18 38 Z" fill="#FFFFFF"/>
  
  <!-- Sailboat hull -->
  <path d="M16 38 C16 38 24 42 32 42 C40 42 48 38 48 38 L46 40 C46 40 40 42 32 42 C24 42 18 40 18 40 Z" fill="#1976D2"/>
  
  <!-- Medical cross in red on the sail -->
  <rect x="24" y="20" width="3" height="12" fill="#EF5350"/>
  <rect x="21" y="24" width="9" height="3" fill="#EF5350"/>
  
  <!-- Wave accent at bottom -->
  <path d="M0 52 Q8 48 16 52 T32 52 T48 52 T64 52 L64 64 L0 64 Z" fill="#0288D1" opacity="0.6"/>
</svg>
